# xmcd
#
# Track frame offsets:
#	150
#	31732
#	76684
#	103999
#	154566
#	186246
#	219744
#	254732
#	297469
#
# Disc length: 4336 seconds
#
# Revision: 3
# Processed by: cddbd v1.5.2PL0 Copyright (c) Steve Scherf et al.
# Submitted via: EasyCDDAExtractor 2010.4.0.0
#
DISCID=7e10ee09
DTITLE=Various Artist - Techno Party 1/1999 - Psychedelic Trance [CD1] - D
DTITLE=ragonfly Records
DYEAR=1999
DGENRE=Psychedelic
TTITLE0=Man With No Name - Teleport
TTITLE1=Hallucinogen - Shamanix
TTITLE2=Zodia Cyouth - False Prophet (Man With No Name Mix)
TTITLE3=Pleiadians - Maia
TTITLE4=Killing Joke - Intellect (Johan Remix)
TTITLE5=Oforia - Psycho Sonic
TTITLE6=Shakta - Spiritual Beings In Psychical Bodies
TTITLE7=The Mauses Rapt - Spiritual Healing
TTITLE8=Celltic Cross - Darshannon
EXTD=YEAR: 1999
EXTT0=
EXTT1=
EXTT2=
EXTT3=
EXTT4=
EXTT5=
EXTT6=
EXTT7=
EXTT8=
PLAYORDER=
